<svg viewBox="0 0 512 512" xmlns="http://www.w3.org/2000/svg" xml:space="preserve" fill-rule="evenodd" clip-rule="evenodd" stroke-linejoin="round" stroke-miterlimit="2">
  <path d="M58.2 266.2c-25-83.3-21-156-18.8-178.6l.6-7 7.1-.1a331 331 0 0 0 138.2-31.8 262 262 0 0 0 65.3-43.6L256 0l5.4 5.1c9.8 9.2 31.5 27.4 65.3 43.6a331 331 0 0 0 138.2 31.8h7l.7 7.1c2.2 22.6 6.2 95.3-18.8 178.6A409.7 409.7 0 0 1 260 509.7l-4 2.3-4-2.3A409.7 409.7 0 0 1 58.3 266.2Zm146.5 88.6 74.7-197.6h28l-74.8 197.6h-28Zm-5-43.4L112 254.6v-23.1l87.7-56.8v30.2l-60.2 37.7v1l60.2 37.6v30.2Zm112.6 0v-30.2l60.2-37.7v-.9l-60.2-37.7v-30.2l87.7 56.8v23.1l-87.7 56.8Z" fill="#81dcff"/>
</svg>
